<?xml version="1.0" encoding="UTF-8" standalone="no"?>
<!DOCTYPE svg PUBLIC "-//W3C//DTD SVG 1.1//EN"
 "http://www.w3.org/Graphics/SVG/1.1/DTD/svg11.dtd">
<!-- Generated by graphviz version 2.43.0 (0)
 -->
<!-- Title: ram Pages: 1 -->
<svg width="4094pt" height="834pt"
 viewBox="0.00 0.00 4094.49 833.50" xmlns="http://www.w3.org/2000/svg" xmlns:xlink="http://www.w3.org/1999/xlink">
<g id="graph0" class="graph" transform="scale(1 1) rotate(0) translate(4 829.5)">
<title>ram</title>
<polygon fill="white" stroke="transparent" points="-4,4 -4,-829.5 4090.49,-829.5 4090.49,4 -4,4"/>
<text text-anchor="middle" x="2043.25" y="-7.8" font-family="Times,serif" font-size="14.00">ram</text>
<!-- n8 -->
<g id="node1" class="node">
<title>n8</title>
<polygon fill="none" stroke="black" points="3231.81,-572.04 3231.81,-586.96 3216,-597.5 3193.63,-597.5 3177.81,-586.96 3177.81,-572.04 3193.63,-561.5 3216,-561.5 3231.81,-572.04"/>
<text text-anchor="middle" x="3204.81" y="-575.8" font-family="Times,serif" font-size="14.00">clk</text>
</g>
<!-- c19 -->
<g id="node9" class="node">
<title>c19</title>
<polygon fill="none" stroke="black" points="3305.31,-632.5 3305.31,-678.5 3442.31,-678.5 3442.31,-632.5 3305.31,-632.5"/>
<text text-anchor="middle" x="3328.81" y="-663.3" font-family="Times,serif" font-size="14.00">CLK</text>
<polyline fill="none" stroke="black" points="3305.31,-655.5 3352.31,-655.5 "/>
<text text-anchor="middle" x="3328.81" y="-640.3" font-family="Times,serif" font-size="14.00">D</text>
<polyline fill="none" stroke="black" points="3352.31,-632.5 3352.31,-678.5 "/>
<text text-anchor="middle" x="3383.31" y="-659.3" font-family="Times,serif" font-size="14.00">$1564</text>
<text text-anchor="middle" x="3383.31" y="-644.3" font-family="Times,serif" font-size="14.00">$dff</text>
<polyline fill="none" stroke="black" points="3414.31,-632.5 3414.31,-678.5 "/>
<text text-anchor="middle" x="3428.31" y="-651.8" font-family="Times,serif" font-size="14.00">Q</text>
</g>
<!-- n8&#45;&gt;c19 -->
<g id="edge32" class="edge">
<title>n8:e&#45;&gt;c19:w</title>
<path fill="none" stroke="black" d="M3232.81,-579.5C3279.73,-579.5 3258.48,-654.92 3295.28,-666.12"/>
<polygon fill="black" stroke="black" points="3294.93,-669.6 3305.31,-667.5 3295.88,-662.67 3294.93,-669.6"/>
</g>
<!-- x15 -->
<g id="node32" class="node">
<title>x15</title>
<path fill="none" stroke="black" d="M3319.31,-528.5C3319.31,-528.5 3428.31,-528.5 3428.31,-528.5 3434.31,-528.5 3440.31,-534.5 3440.31,-540.5 3440.31,-540.5 3440.31,-552.5 3440.31,-552.5 3440.31,-558.5 3434.31,-564.5 3428.31,-564.5 3428.31,-564.5 3319.31,-564.5 3319.31,-564.5 3313.31,-564.5 3307.31,-558.5 3307.31,-552.5 3307.31,-552.5 3307.31,-540.5 3307.31,-540.5 3307.31,-534.5 3313.31,-528.5 3319.31,-528.5"/>
<text text-anchor="middle" x="3373.81" y="-542.8" font-family="Times,serif" font-size="14.00">257x 0:0 &#45; 256:0</text>
</g>
<!-- n8&#45;&gt;x15 -->
<g id="edge33" class="edge">
<title>n8:e&#45;&gt;x15:w</title>
<path fill="none" stroke="black" stroke-width="3" d="M3232.81,-579.5C3264.66,-579.5 3269.45,-553.09 3295.6,-547.52"/>
<polygon fill="black" stroke="black" stroke-width="3" points="3296.21,-550.98 3305.81,-546.5 3295.51,-544.01 3296.21,-550.98"/>
</g>
<!-- n9 -->
<g id="node2" class="node">
<title>n9</title>
<polygon fill="none" stroke="black" points="71.53,-601.04 71.53,-615.96 51.88,-626.5 24.1,-626.5 4.45,-615.96 4.45,-601.04 24.1,-590.5 51.88,-590.5 71.53,-601.04"/>
<text text-anchor="middle" x="37.99" y="-604.8" font-family="Times,serif" font-size="14.00">data</text>
</g>
<!-- c28 -->
<g id="node22" class="node">
<title>c28</title>
<polygon fill="none" stroke="black" points="1553.64,-574 1553.64,-643 1662.64,-643 1662.64,-574 1553.64,-574"/>
<text text-anchor="middle" x="1567.14" y="-627.8" font-family="Times,serif" font-size="14.00">A</text>
<polyline fill="none" stroke="black" points="1553.64,-620 1580.64,-620 "/>
<text text-anchor="middle" x="1567.14" y="-604.8" font-family="Times,serif" font-size="14.00">B</text>
<polyline fill="none" stroke="black" points="1553.64,-597 1580.64,-597 "/>
<text text-anchor="middle" x="1567.14" y="-581.8" font-family="Times,serif" font-size="14.00">S</text>
<polyline fill="none" stroke="black" points="1580.64,-574 1580.64,-643 "/>
<text text-anchor="middle" x="1608.64" y="-612.3" font-family="Times,serif" font-size="14.00">$783</text>
<text text-anchor="middle" x="1608.64" y="-597.3" font-family="Times,serif" font-size="14.00">$mux</text>
<polyline fill="none" stroke="black" points="1636.64,-574 1636.64,-643 "/>
<text text-anchor="middle" x="1649.64" y="-604.8" font-family="Times,serif" font-size="14.00">Y</text>
</g>
<!-- n9&#45;&gt;c28 -->
<g id="edge34" class="edge">
<title>n9:e&#45;&gt;c28:w</title>
<path fill="none" stroke="black" stroke-width="3" d="M72.99,-608.5C727.02,-608.5 893.04,-608.5 1542.07,-608.5"/>
<polygon fill="black" stroke="black" stroke-width="3" points="1542.14,-612 1552.14,-608.5 1542.14,-605 1542.14,-612"/>
</g>
<!-- n10 -->
<g id="node3" class="node">
<title>n10</title>
<polygon fill="none" stroke="black" points="3608.56,-800.04 3608.56,-814.96 3576.49,-825.5 3531.14,-825.5 3499.07,-814.96 3499.07,-800.04 3531.14,-789.5 3576.49,-789.5 3608.56,-800.04"/>
<text text-anchor="middle" x="3553.81" y="-803.8" font-family="Times,serif" font-size="14.00">data_out</text>
</g>
<!-- c25 -->
<g id="node15" class="node">
<title>c25</title>
<polygon fill="none" stroke="black" points="3737.31,-708 3737.31,-777 3852.31,-777 3852.31,-708 3737.31,-708"/>
<text text-anchor="middle" x="3750.81" y="-761.8" font-family="Times,serif" font-size="14.00">A</text>
<polyline fill="none" stroke="black" points="3737.31,-754 3764.31,-754 "/>
<text text-anchor="middle" x="3750.81" y="-738.8" font-family="Times,serif" font-size="14.00">B</text>
<polyline fill="none" stroke="black" points="3737.31,-731 3764.31,-731 "/>
<text text-anchor="middle" x="3750.81" y="-715.8" font-family="Times,serif" font-size="14.00">S</text>
<polyline fill="none" stroke="black" points="3764.31,-708 3764.31,-777 "/>
<text text-anchor="middle" x="3795.31" y="-746.3" font-family="Times,serif" font-size="14.00">$1560</text>
<text text-anchor="middle" x="3795.31" y="-731.3" font-family="Times,serif" font-size="14.00">$mux</text>
<polyline fill="none" stroke="black" points="3826.31,-708 3826.31,-777 "/>
<text text-anchor="middle" x="3839.31" y="-738.8" font-family="Times,serif" font-size="14.00">Y</text>
</g>
<!-- n10&#45;&gt;c25 -->
<g id="edge14" class="edge">
<title>n10:e&#45;&gt;c25:w</title>
<path fill="none" stroke="black" stroke-width="3" d="M3609.81,-807.5C3665.27,-807.5 3675.63,-770.43 3725.63,-765.94"/>
<polygon fill="black" stroke="black" stroke-width="3" points="3725.97,-769.43 3735.81,-765.5 3725.67,-762.44 3725.97,-769.43"/>
</g>
<!-- n11 -->
<g id="node4" class="node">
<title>n11</title>
<polygon fill="none" stroke="black" points="3821.81,-291.04 3821.81,-305.96 3806,-316.5 3783.63,-316.5 3767.81,-305.96 3767.81,-291.04 3783.63,-280.5 3806,-280.5 3821.81,-291.04"/>
<text text-anchor="middle" x="3794.81" y="-294.8" font-family="Times,serif" font-size="14.00">r</text>
</g>
<!-- c26 -->
<g id="node16" class="node">
<title>c26</title>
<polygon fill="none" stroke="black" points="3960.31,-519 3960.31,-588 4075.31,-588 4075.31,-519 3960.31,-519"/>
<text text-anchor="middle" x="3973.81" y="-572.8" font-family="Times,serif" font-size="14.00">A</text>
<polyline fill="none" stroke="black" points="3960.31,-565 3987.31,-565 "/>
<text text-anchor="middle" x="3973.81" y="-549.8" font-family="Times,serif" font-size="14.00">B</text>
<polyline fill="none" stroke="black" points="3960.31,-542 3987.31,-542 "/>
<text text-anchor="middle" x="3973.81" y="-526.8" font-family="Times,serif" font-size="14.00">S</text>
<polyline fill="none" stroke="black" points="3987.31,-519 3987.31,-588 "/>
<text text-anchor="middle" x="4018.31" y="-557.3" font-family="Times,serif" font-size="14.00">$1562</text>
<text text-anchor="middle" x="4018.31" y="-542.3" font-family="Times,serif" font-size="14.00">$mux</text>
<polyline fill="none" stroke="black" points="4049.31,-519 4049.31,-588 "/>
<text text-anchor="middle" x="4062.31" y="-549.8" font-family="Times,serif" font-size="14.00">Y</text>
</g>
<!-- n11&#45;&gt;c26 -->
<g id="edge15" class="edge">
<title>n11:e&#45;&gt;c26:w</title>
<path fill="none" stroke="black" d="M3822.81,-298.5C3869.49,-298.5 3892.76,-291.1 3924.31,-325.5 3953.01,-356.79 3920.38,-503.38 3950.61,-527.22"/>
<polygon fill="black" stroke="black" points="3949.72,-530.61 3960.31,-530.5 3951.96,-523.98 3949.72,-530.61"/>
</g>
<!-- n12 -->
<g id="node5" class="node">
<title>n12</title>
<polygon fill="none" stroke="black" points="3588.25,-616.04 3588.25,-630.96 3568.08,-641.5 3539.55,-641.5 3519.37,-630.96 3519.37,-616.04 3539.55,-605.5 3568.08,-605.5 3588.25,-616.04"/>
<text text-anchor="middle" x="3553.81" y="-619.8" font-family="Times,serif" font-size="14.00">read</text>
</g>
<!-- c40 -->
<g id="node30" class="node">
<title>c40</title>
<polygon fill="none" stroke="black" points="3665.31,-335 3665.31,-542 3924.31,-542 3924.31,-335 3665.31,-335"/>
<text text-anchor="middle" x="3710.81" y="-526.8" font-family="Times,serif" font-size="14.00">RD_ADDR</text>
<polyline fill="none" stroke="black" points="3665.31,-519 3756.31,-519 "/>
<text text-anchor="middle" x="3710.81" y="-503.8" font-family="Times,serif" font-size="14.00">RD_ARST</text>
<polyline fill="none" stroke="black" points="3665.31,-496 3756.31,-496 "/>
<text text-anchor="middle" x="3710.81" y="-480.8" font-family="Times,serif" font-size="14.00">RD_CLK</text>
<polyline fill="none" stroke="black" points="3665.31,-473 3756.31,-473 "/>
<text text-anchor="middle" x="3710.81" y="-457.8" font-family="Times,serif" font-size="14.00">RD_EN</text>
<polyline fill="none" stroke="black" points="3665.31,-450 3756.31,-450 "/>
<text text-anchor="middle" x="3710.81" y="-434.8" font-family="Times,serif" font-size="14.00">RD_SRST</text>
<polyline fill="none" stroke="black" points="3665.31,-427 3756.31,-427 "/>
<text text-anchor="middle" x="3710.81" y="-411.8" font-family="Times,serif" font-size="14.00">WR_ADDR</text>
<polyline fill="none" stroke="black" points="3665.31,-404 3756.31,-404 "/>
<text text-anchor="middle" x="3710.81" y="-388.8" font-family="Times,serif" font-size="14.00">WR_CLK</text>
<polyline fill="none" stroke="black" points="3665.31,-381 3756.31,-381 "/>
<text text-anchor="middle" x="3710.81" y="-365.8" font-family="Times,serif" font-size="14.00">WR_DATA</text>
<polyline fill="none" stroke="black" points="3665.31,-358 3756.31,-358 "/>
<text text-anchor="middle" x="3710.81" y="-342.8" font-family="Times,serif" font-size="14.00">WR_EN</text>
<polyline fill="none" stroke="black" points="3756.31,-335 3756.31,-542 "/>
<text text-anchor="middle" x="3798.81" y="-442.3" font-family="Times,serif" font-size="14.00">memory</text>
<text text-anchor="middle" x="3798.81" y="-427.3" font-family="Times,serif" font-size="14.00">$mem_v2</text>
<polyline fill="none" stroke="black" points="3841.31,-335 3841.31,-542 "/>
<text text-anchor="middle" x="3882.81" y="-434.8" font-family="Times,serif" font-size="14.00">RD_DATA</text>
</g>
<!-- n12&#45;&gt;c40 -->
<g id="edge16" class="edge">
<title>n12:e&#45;&gt;c40:w</title>
<path fill="none" stroke="black" stroke-width="3" d="M3589.81,-623.5C3611.08,-623.5 3615.05,-612.27 3629.31,-596.5 3649.01,-574.72 3636.08,-540.24 3655.35,-532.21"/>
<polygon fill="black" stroke="black" stroke-width="3" points="3656.05,-535.64 3665.31,-530.5 3654.86,-528.74 3656.05,-535.64"/>
</g>
<!-- n13 -->
<g id="node6" class="node">
<title>n13</title>
<polygon fill="none" stroke="black" points="64.99,-304.04 64.99,-318.96 49.17,-329.5 26.8,-329.5 10.99,-318.96 10.99,-304.04 26.8,-293.5 49.17,-293.5 64.99,-304.04"/>
<text text-anchor="middle" x="37.99" y="-307.8" font-family="Times,serif" font-size="14.00">rst</text>
</g>
<!-- c24 -->
<g id="node12" class="node">
<title>c24</title>
<polygon fill="none" stroke="black" points="1550.64,-102 1550.64,-171 1665.64,-171 1665.64,-102 1550.64,-102"/>
<text text-anchor="middle" x="1564.14" y="-155.8" font-family="Times,serif" font-size="14.00">A</text>
<polyline fill="none" stroke="black" points="1550.64,-148 1577.64,-148 "/>
<text text-anchor="middle" x="1564.14" y="-132.8" font-family="Times,serif" font-size="14.00">B</text>
<polyline fill="none" stroke="black" points="1550.64,-125 1577.64,-125 "/>
<text text-anchor="middle" x="1564.14" y="-109.8" font-family="Times,serif" font-size="14.00">S</text>
<polyline fill="none" stroke="black" points="1577.64,-102 1577.64,-171 "/>
<text text-anchor="middle" x="1608.64" y="-140.3" font-family="Times,serif" font-size="14.00">$1002</text>
<text text-anchor="middle" x="1608.64" y="-125.3" font-family="Times,serif" font-size="14.00">$mux</text>
<polyline fill="none" stroke="black" points="1639.64,-102 1639.64,-171 "/>
<text text-anchor="middle" x="1652.64" y="-132.8" font-family="Times,serif" font-size="14.00">Y</text>
</g>
<!-- n13&#45;&gt;c24 -->
<g id="edge17" class="edge">
<title>n13:e&#45;&gt;c24:w</title>
<path fill="none" stroke="black" d="M65.99,-311.5C112.1,-311.5 73.72,-244.24 111.98,-218.5 640.49,137.09 905.84,-110.81 1538.86,-113.48"/>
<polygon fill="black" stroke="black" points="1539.14,-116.98 1549.14,-113.5 1539.15,-109.98 1539.14,-116.98"/>
</g>
<!-- n13&#45;&gt;c25 -->
<g id="edge18" class="edge">
<title>n13:e&#45;&gt;c25:w</title>
<path fill="none" stroke="black" d="M65.99,-311.5C103.96,-311.5 78.96,-364.74 111.98,-383.5 401.19,-547.84 2842.73,-271.02 3104.31,-476.5 3151.46,-513.53 3102.16,-560.26 3140.31,-606.5 3192.43,-669.66 3226.31,-666.93 3305.31,-688.5 3487.02,-738.12 3542,-720.18 3725.55,-719.52"/>
<polygon fill="black" stroke="black" points="3725.82,-723.02 3735.81,-719.5 3725.81,-716.02 3725.82,-723.02"/>
</g>
<!-- n14 -->
<g id="node7" class="node">
<title>n14</title>
<polygon fill="none" stroke="black" points="64.99,-439.04 64.99,-453.96 49.17,-464.5 26.8,-464.5 10.99,-453.96 10.99,-439.04 26.8,-428.5 49.17,-428.5 64.99,-439.04"/>
<text text-anchor="middle" x="37.99" y="-442.8" font-family="Times,serif" font-size="14.00">w</text>
</g>
<!-- c27 -->
<g id="node19" class="node">
<title>c27</title>
<polygon fill="none" stroke="black" points="1553.64,-228 1553.64,-297 1662.64,-297 1662.64,-228 1553.64,-228"/>
<text text-anchor="middle" x="1567.14" y="-281.8" font-family="Times,serif" font-size="14.00">A</text>
<polyline fill="none" stroke="black" points="1553.64,-274 1580.64,-274 "/>
<text text-anchor="middle" x="1567.14" y="-258.8" font-family="Times,serif" font-size="14.00">B</text>
<polyline fill="none" stroke="black" points="1553.64,-251 1580.64,-251 "/>
<text text-anchor="middle" x="1567.14" y="-235.8" font-family="Times,serif" font-size="14.00">S</text>
<polyline fill="none" stroke="black" points="1580.64,-228 1580.64,-297 "/>
<text text-anchor="middle" x="1608.64" y="-266.3" font-family="Times,serif" font-size="14.00">$780</text>
<text text-anchor="middle" x="1608.64" y="-251.3" font-family="Times,serif" font-size="14.00">$mux</text>
<polyline fill="none" stroke="black" points="1636.64,-228 1636.64,-297 "/>
<text text-anchor="middle" x="1649.64" y="-258.8" font-family="Times,serif" font-size="14.00">Y</text>
</g>
<!-- n14&#45;&gt;c27 -->
<g id="edge19" class="edge">
<title>n14:e&#45;&gt;c27:w</title>
<path fill="none" stroke="black" d="M65.99,-446.5C121.86,-446.5 66.81,-362.39 111.98,-329.5 368.55,-142.69 1213.9,-237.51 1542.11,-239.47"/>
<polygon fill="black" stroke="black" points="1542.13,-242.97 1552.14,-239.5 1542.16,-235.97 1542.13,-242.97"/>
</g>
<!-- n14&#45;&gt;c28 -->
<g id="edge20" class="edge">
<title>n14:e&#45;&gt;c28:w</title>
<path fill="none" stroke="black" d="M65.99,-446.5C122.28,-446.5 65.74,-532.4 111.98,-564.5 634.99,-927.61 909.05,-589.18 1541.86,-585.53"/>
<polygon fill="black" stroke="black" points="1542.15,-589.03 1552.14,-585.5 1542.13,-582.03 1542.15,-589.03"/>
</g>
<!-- c29 -->
<g id="node24" class="node">
<title>c29</title>
<polygon fill="none" stroke="black" points="1553.64,-486 1553.64,-555 1662.64,-555 1662.64,-486 1553.64,-486"/>
<text text-anchor="middle" x="1567.14" y="-539.8" font-family="Times,serif" font-size="14.00">A</text>
<polyline fill="none" stroke="black" points="1553.64,-532 1580.64,-532 "/>
<text text-anchor="middle" x="1567.14" y="-516.8" font-family="Times,serif" font-size="14.00">B</text>
<polyline fill="none" stroke="black" points="1553.64,-509 1580.64,-509 "/>
<text text-anchor="middle" x="1567.14" y="-493.8" font-family="Times,serif" font-size="14.00">S</text>
<polyline fill="none" stroke="black" points="1580.64,-486 1580.64,-555 "/>
<text text-anchor="middle" x="1608.64" y="-524.3" font-family="Times,serif" font-size="14.00">$786</text>
<text text-anchor="middle" x="1608.64" y="-509.3" font-family="Times,serif" font-size="14.00">$mux</text>
<polyline fill="none" stroke="black" points="1636.64,-486 1636.64,-555 "/>
<text text-anchor="middle" x="1649.64" y="-516.8" font-family="Times,serif" font-size="14.00">Y</text>
</g>
<!-- n14&#45;&gt;c29 -->
<g id="edge21" class="edge">
<title>n14:e&#45;&gt;c29:w</title>
<path fill="none" stroke="black" d="M65.99,-446.5C89.25,-446.5 89.48,-465.56 111.98,-471.5 727.64,-633.96 910.01,-498.97 1541.87,-497.51"/>
<polygon fill="black" stroke="black" points="1542.15,-501.01 1552.14,-497.5 1542.14,-494.01 1542.15,-501.01"/>
</g>
<!-- n15 -->
<g id="node8" class="node">
<title>n15</title>
<polygon fill="none" stroke="black" points="75.97,-493.04 75.97,-507.96 53.72,-518.5 22.26,-518.5 0.01,-507.96 0.01,-493.04 22.26,-482.5 53.72,-482.5 75.97,-493.04"/>
<text text-anchor="middle" x="37.99" y="-496.8" font-family="Times,serif" font-size="14.00">write</text>
</g>
<!-- n15&#45;&gt;c29 -->
<g id="edge22" class="edge">
<title>n15:e&#45;&gt;c29:w</title>
<path fill="none" stroke="black" stroke-width="3" d="M75.98,-500.5C728.75,-500.5 894.32,-520.3 1542.09,-520.5"/>
<polygon fill="black" stroke="black" stroke-width="3" points="1542.14,-524 1552.14,-520.5 1542.15,-517 1542.14,-524"/>
</g>
<!-- c19&#45;&gt;n10 -->
<g id="edge13" class="edge">
<title>c19:e&#45;&gt;n10:w</title>
<path fill="none" stroke="black" stroke-width="3" d="M3442.31,-655.5C3510.44,-655.5 3434.76,-791.89 3487.72,-806.28"/>
<polygon fill="black" stroke="black" stroke-width="3" points="3487.46,-809.77 3497.81,-807.5 3488.31,-802.82 3487.46,-809.77"/>
</g>
<!-- v0 -->
<g id="node10" class="node">
<title>v0</title>
<ellipse fill="none" stroke="black" cx="37.99" cy="-175.5" rx="27" ry="18"/>
<text text-anchor="middle" x="37.99" y="-171.8" font-family="Times,serif" font-size="14.00">1&#39;0</text>
</g>
<!-- v0&#45;&gt;c24 -->
<g id="edge35" class="edge">
<title>v0:e&#45;&gt;c24:w</title>
<path fill="none" stroke="black" d="M65.99,-175.5C721.83,-175.5 888.22,-159.66 1539.04,-159.5"/>
<polygon fill="black" stroke="black" points="1539.14,-163 1549.14,-159.5 1539.14,-156 1539.14,-163"/>
</g>
<!-- v1 -->
<g id="node11" class="node">
<title>v1</title>
<ellipse fill="none" stroke="black" cx="37.99" cy="-121.5" rx="27" ry="18"/>
<text text-anchor="middle" x="37.99" y="-117.8" font-family="Times,serif" font-size="14.00">1&#39;1</text>
</g>
<!-- v1&#45;&gt;c24 -->
<g id="edge36" class="edge">
<title>v1:e&#45;&gt;c24:w</title>
<path fill="none" stroke="black" d="M65.99,-121.5C721.82,-121.5 888.23,-136.35 1539.04,-136.5"/>
<polygon fill="black" stroke="black" points="1539.14,-140 1549.14,-136.5 1539.14,-133 1539.14,-140"/>
</g>
<!-- x2 -->
<g id="node13" class="node">
<title>x2</title>
<path fill="none" stroke="black" d="M3179.31,-93.5C3179.31,-93.5 3230.31,-93.5 3230.31,-93.5 3236.31,-93.5 3242.31,-99.5 3242.31,-105.5 3242.31,-105.5 3242.31,-117.5 3242.31,-117.5 3242.31,-123.5 3236.31,-129.5 3230.31,-129.5 3230.31,-129.5 3179.31,-129.5 3179.31,-129.5 3173.31,-129.5 3167.31,-123.5 3167.31,-117.5 3167.31,-117.5 3167.31,-105.5 3167.31,-105.5 3167.31,-99.5 3173.31,-93.5 3179.31,-93.5"/>
<text text-anchor="middle" x="3204.81" y="-107.8" font-family="Times,serif" font-size="14.00">0:0 &#45; 7:7</text>
</g>
<!-- c24&#45;&gt;x2 -->
<g id="edge1" class="edge">
<title>c24:e&#45;&gt;x2:w</title>
<path fill="none" stroke="black" d="M1679.29,-136.5C2331.36,-136.2 2501.64,-111.8 3153.74,-111.5"/>
<polygon fill="none" stroke="black" points="1679.14,-136.5 1673.15,-140.5 1667.14,-136.5 1673.14,-132.5 1679.14,-136.5"/>
<polygon fill="none" stroke="black" points="3153.81,-111.5 3159.81,-107.5 3165.81,-111.5 3159.81,-115.5 3153.81,-111.5"/>
</g>
<!-- n1 -->
<g id="node39" class="node">
<title>n1</title>
<ellipse fill="black" stroke="black" cx="3373.81" cy="-108.5" rx="1.8" ry="1.8"/>
</g>
<!-- x2&#45;&gt;n1 -->
<g id="edge10" class="edge">
<title>x2:e&#45;&gt;n1:w</title>
<path fill="none" stroke="black" d="M3243.81,-111.5C3296.74,-111.5 3312.43,-108.86 3360.7,-108.53"/>
<polygon fill="black" stroke="black" points="3360.82,-112.03 3370.81,-108.5 3360.8,-105.03 3360.82,-112.03"/>
</g>
<!-- v3 -->
<g id="node14" class="node">
<title>v3</title>
<ellipse fill="none" stroke="black" cx="3553.81" cy="-753.5" rx="65.79" ry="18"/>
<text text-anchor="middle" x="3553.81" y="-749.8" font-family="Times,serif" font-size="14.00">8&#39;00000000</text>
</g>
<!-- v3&#45;&gt;c25 -->
<g id="edge41" class="edge">
<title>v3:e&#45;&gt;c25:w</title>
<path fill="none" stroke="black" stroke-width="3" d="M3620.81,-753.5C3668.65,-753.5 3682.6,-743.95 3725.8,-742.65"/>
<polygon fill="black" stroke="black" stroke-width="3" points="3725.86,-746.15 3735.81,-742.5 3725.76,-739.15 3725.86,-746.15"/>
</g>
<!-- c25&#45;&gt;c26 -->
<g id="edge31" class="edge">
<title>c25:e&#45;&gt;c26:w</title>
<path fill="none" stroke="black" stroke-width="3" d="M3853.81,-742.5C3894.67,-742.5 3901.27,-717.24 3924.31,-683.5 3950.4,-645.3 3916.34,-586.6 3950.17,-577.66"/>
<polygon fill="black" stroke="black" stroke-width="3" points="3950.77,-581.11 3960.31,-576.5 3949.98,-574.16 3950.77,-581.11"/>
</g>
<!-- c26&#45;&gt;c19 -->
<g id="edge29" class="edge">
<title>c26:e&#45;&gt;c19:w</title>
<path fill="none" stroke="black" stroke-width="3" d="M4076.81,-553.5C4092.37,-553.5 4086.2,-576.91 4075.81,-588.5 4047.76,-619.8 3648.91,-691.77 3478.31,-650.5 3460.83,-646.27 3459.8,-636.23 3442.31,-632 3382.91,-617.63 3349.86,-590.7 3304.81,-632 3304.34,-632.43 3303.89,-632.94 3303.47,-633.49"/>
<polygon fill="black" stroke="black" stroke-width="3" points="3299.98,-633.62 3303.81,-643.5 3306.97,-633.39 3299.98,-633.62"/>
</g>
<!-- v4 -->
<g id="node17" class="node">
<title>v4</title>
<ellipse fill="none" stroke="black" cx="37.99" cy="-365.5" rx="27" ry="18"/>
<text text-anchor="middle" x="37.99" y="-361.8" font-family="Times,serif" font-size="14.00">1&#39;0</text>
</g>
<!-- v4&#45;&gt;c27 -->
<g id="edge42" class="edge">
<title>v4:e&#45;&gt;c27:w</title>
<path fill="none" stroke="black" d="M65.99,-365.5C91.95,-365.5 87.57,-338.34 111.98,-329.5 710.87,-112.68 909.64,-283.64 1541.86,-285.49"/>
<polygon fill="black" stroke="black" points="1542.14,-288.99 1552.14,-285.5 1542.15,-281.99 1542.14,-288.99"/>
</g>
<!-- v5 -->
<g id="node18" class="node">
<title>v5</title>
<ellipse fill="none" stroke="black" cx="37.99" cy="-257.5" rx="27" ry="18"/>
<text text-anchor="middle" x="37.99" y="-253.8" font-family="Times,serif" font-size="14.00">1&#39;1</text>
</g>
<!-- v5&#45;&gt;c27 -->
<g id="edge43" class="edge">
<title>v5:e&#45;&gt;c27:w</title>
<path fill="none" stroke="black" d="M65.99,-257.5C723.12,-257.5 889.92,-262.45 1542.02,-262.5"/>
<polygon fill="black" stroke="black" points="1542.14,-266 1552.14,-262.5 1542.14,-259 1542.14,-266"/>
</g>
<!-- x6 -->
<g id="node20" class="node">
<title>x6</title>
<path fill="none" stroke="black" d="M3179.31,-235.5C3179.31,-235.5 3230.31,-235.5 3230.31,-235.5 3236.31,-235.5 3242.31,-241.5 3242.31,-247.5 3242.31,-247.5 3242.31,-259.5 3242.31,-259.5 3242.31,-265.5 3236.31,-271.5 3230.31,-271.5 3230.31,-271.5 3179.31,-271.5 3179.31,-271.5 3173.31,-271.5 3167.31,-265.5 3167.31,-259.5 3167.31,-259.5 3167.31,-247.5 3167.31,-247.5 3167.31,-241.5 3173.31,-235.5 3179.31,-235.5"/>
<text text-anchor="middle" x="3204.81" y="-249.8" font-family="Times,serif" font-size="14.00">0:0 &#45; 7:7</text>
</g>
<!-- c27&#45;&gt;x6 -->
<g id="edge2" class="edge">
<title>c27:e&#45;&gt;x6:w</title>
<path fill="none" stroke="black" d="M1676.31,-262.5C2329.61,-262.39 2500.39,-253.61 3153.72,-253.5"/>
<polygon fill="none" stroke="black" points="1676.14,-262.5 1670.14,-266.5 1664.14,-262.5 1670.14,-258.5 1676.14,-262.5"/>
<polygon fill="none" stroke="black" points="3153.81,-253.5 3159.81,-249.5 3165.81,-253.5 3159.81,-257.5 3153.81,-253.5"/>
</g>
<!-- n4 -->
<g id="node40" class="node">
<title>n4</title>
<ellipse fill="black" stroke="black" cx="3373.81" cy="-234.5" rx="1.8" ry="1.8"/>
</g>
<!-- x6&#45;&gt;n4 -->
<g id="edge26" class="edge">
<title>x6:e&#45;&gt;n4:w</title>
<path fill="none" stroke="black" d="M3243.81,-253.5C3297.32,-253.5 3311.96,-236.8 3360.61,-234.71"/>
<polygon fill="black" stroke="black" points="3360.89,-238.21 3370.81,-234.5 3360.74,-231.21 3360.89,-238.21"/>
</g>
<!-- v7 -->
<g id="node21" class="node">
<title>v7</title>
<ellipse fill="none" stroke="black" cx="37.99" cy="-662.5" rx="27" ry="18"/>
<text text-anchor="middle" x="37.99" y="-658.8" font-family="Times,serif" font-size="14.00">8&#39;x</text>
</g>
<!-- v7&#45;&gt;c28 -->
<g id="edge44" class="edge">
<title>v7:e&#45;&gt;c28:w</title>
<path fill="none" stroke="black" stroke-width="3" d="M65.99,-662.5C723.26,-662.5 889.78,-631.82 1542.02,-631.5"/>
<polygon fill="black" stroke="black" stroke-width="3" points="1542.15,-635 1552.14,-631.5 1542.14,-628 1542.15,-635"/>
</g>
<!-- x16 -->
<g id="node33" class="node">
<title>x16</title>
<path fill="none" stroke="black" d="M3321.31,-364.5C3321.31,-364.5 3426.31,-364.5 3426.31,-364.5 3432.31,-364.5 3438.31,-370.5 3438.31,-376.5 3438.31,-376.5 3438.31,-398.5 3438.31,-398.5 3438.31,-404.5 3432.31,-410.5 3426.31,-410.5 3426.31,-410.5 3321.31,-410.5 3321.31,-410.5 3315.31,-410.5 3309.31,-404.5 3309.31,-398.5 3309.31,-398.5 3309.31,-376.5 3309.31,-376.5 3309.31,-370.5 3315.31,-364.5 3321.31,-364.5"/>
<text text-anchor="middle" x="3373.81" y="-395.3" font-family="Times,serif" font-size="14.00">7:0 &#45; 2055:2048</text>
<polyline fill="none" stroke="black" points="3309.31,-387.5 3438.31,-387.5 "/>
<text text-anchor="middle" x="3373.81" y="-372.3" font-family="Times,serif" font-size="14.00">0 &#45;&gt; 2047:0</text>
</g>
<!-- c28&#45;&gt;x16 -->
<g id="edge24" class="edge">
<title>c28:e&#45;&gt;x16:w</title>
<path fill="none" stroke="black" stroke-width="3" d="M1664.14,-608.5C2304.52,-608.5 2504.07,-787.64 3104.31,-564.5 3210.15,-525.15 3192.59,-406.96 3297.61,-399.84"/>
<polygon fill="black" stroke="black" stroke-width="3" points="3297.93,-403.33 3307.81,-399.5 3297.7,-396.33 3297.93,-403.33"/>
</g>
<!-- v8 -->
<g id="node23" class="node">
<title>v8</title>
<ellipse fill="none" stroke="black" cx="37.99" cy="-554.5" rx="27" ry="18"/>
<text text-anchor="middle" x="37.99" y="-550.8" font-family="Times,serif" font-size="14.00">8&#39;x</text>
</g>
<!-- v8&#45;&gt;c29 -->
<g id="edge45" class="edge">
<title>v8:e&#45;&gt;c29:w</title>
<path fill="none" stroke="black" stroke-width="3" d="M65.99,-554.5C723.13,-554.5 889.91,-543.61 1542.02,-543.5"/>
<polygon fill="black" stroke="black" stroke-width="3" points="1542.14,-547 1552.14,-543.5 1542.14,-540 1542.14,-547"/>
</g>
<!-- x13 -->
<g id="node31" class="node">
<title>x13</title>
<path fill="none" stroke="black" d="M3152.31,-345.5C3152.31,-345.5 3257.31,-345.5 3257.31,-345.5 3263.31,-345.5 3269.31,-351.5 3269.31,-357.5 3269.31,-357.5 3269.31,-379.5 3269.31,-379.5 3269.31,-385.5 3263.31,-391.5 3257.31,-391.5 3257.31,-391.5 3152.31,-391.5 3152.31,-391.5 3146.31,-391.5 3140.31,-385.5 3140.31,-379.5 3140.31,-379.5 3140.31,-357.5 3140.31,-357.5 3140.31,-351.5 3146.31,-345.5 3152.31,-345.5"/>
<text text-anchor="middle" x="3204.81" y="-376.3" font-family="Times,serif" font-size="14.00">7:0 &#45; 2055:2048</text>
<polyline fill="none" stroke="black" points="3140.31,-368.5 3269.31,-368.5 "/>
<text text-anchor="middle" x="3204.81" y="-353.3" font-family="Times,serif" font-size="14.00">2047:0 &#45; 2047:0</text>
</g>
<!-- c29&#45;&gt;x13 -->
<g id="edge23" class="edge">
<title>c29:e&#45;&gt;x13:w</title>
<path fill="none" stroke="black" stroke-width="3" d="M1664.14,-520.5C1683.85,-520.5 2999.01,-392.27 3130.05,-381.25"/>
<polygon fill="black" stroke="black" stroke-width="3" points="3130.59,-384.72 3140.31,-380.5 3130.08,-377.74 3130.59,-384.72"/>
</g>
<!-- v9 -->
<g id="node25" class="node">
<title>v9</title>
<ellipse fill="none" stroke="black" cx="3553.81" cy="-569.5" rx="27" ry="18"/>
<text text-anchor="middle" x="3553.81" y="-565.8" font-family="Times,serif" font-size="14.00">1&#39;0</text>
</g>
<!-- v9&#45;&gt;c40 -->
<g id="edge46" class="edge">
<title>v9:e&#45;&gt;c40:w</title>
<path fill="none" stroke="black" d="M3581.81,-569.5C3606.09,-569.5 3609.89,-557.08 3629.31,-542.5 3643.81,-531.61 3643.78,-515.31 3655.23,-509.58"/>
<polygon fill="black" stroke="black" points="3656.23,-512.95 3665.31,-507.5 3654.81,-506.09 3656.23,-512.95"/>
</g>
<!-- v10 -->
<g id="node26" class="node">
<title>v10</title>
<ellipse fill="none" stroke="black" cx="3553.81" cy="-515.5" rx="27" ry="18"/>
<text text-anchor="middle" x="3553.81" y="-511.8" font-family="Times,serif" font-size="14.00">1&#39;x</text>
</g>
<!-- v10&#45;&gt;c40 -->
<g id="edge37" class="edge">
<title>v10:e&#45;&gt;c40:w</title>
<path fill="none" stroke="black" d="M3581.81,-515.5C3617.69,-515.5 3624.6,-490.04 3655.05,-485.27"/>
<polygon fill="black" stroke="black" points="3655.6,-488.74 3665.31,-484.5 3655.08,-481.75 3655.6,-488.74"/>
</g>
<!-- v11 -->
<g id="node27" class="node">
<title>v11</title>
<ellipse fill="none" stroke="black" cx="3553.81" cy="-461.5" rx="27" ry="18"/>
<text text-anchor="middle" x="3553.81" y="-457.8" font-family="Times,serif" font-size="14.00">1&#39;1</text>
</g>
<!-- v11&#45;&gt;c40 -->
<g id="edge38" class="edge">
<title>v11:e&#45;&gt;c40:w</title>
<path fill="none" stroke="black" d="M3581.81,-461.5C3615.3,-461.5 3626.12,-461.5 3655.18,-461.5"/>
<polygon fill="black" stroke="black" points="3655.31,-465 3665.31,-461.5 3655.31,-458 3655.31,-465"/>
</g>
<!-- v12 -->
<g id="node28" class="node">
<title>v12</title>
<ellipse fill="none" stroke="black" cx="3553.81" cy="-407.5" rx="27" ry="18"/>
<text text-anchor="middle" x="3553.81" y="-403.8" font-family="Times,serif" font-size="14.00">1&#39;0</text>
</g>
<!-- v12&#45;&gt;c40 -->
<g id="edge39" class="edge">
<title>v12:e&#45;&gt;c40:w</title>
<path fill="none" stroke="black" d="M3581.81,-407.5C3617.69,-407.5 3624.6,-432.96 3655.05,-437.73"/>
<polygon fill="black" stroke="black" points="3655.08,-441.25 3665.31,-438.5 3655.6,-434.26 3655.08,-441.25"/>
</g>
<!-- v14 -->
<g id="node29" class="node">
<title>v14</title>
<ellipse fill="none" stroke="black" cx="1608.14" cy="-356.5" rx="1496.33" ry="18"/>
<text text-anchor="middle" x="1608.14" y="-352.8" font-family="Times,serif" font-size="14.00">2048&#39;11111111111111101111110111111100111110111111101011111001111110001111011111110110111101011111010011110011111100101111000111110000111011111110111011101101111011001110101111101010111010011110100011100111111001101110010111100100111000111110001011100001...</text>
</g>
<!-- v14&#45;&gt;x13 -->
<g id="edge40" class="edge">
<title>v14:e&#45;&gt;x13:w</title>
<path fill="none" stroke="black" stroke-width="3" d="M3104.31,-356.5C3116.31,-356.5 3121.56,-356.5 3130.19,-356.5"/>
<polygon fill="black" stroke="black" stroke-width="3" points="3130.31,-360 3140.31,-356.5 3130.31,-353 3130.31,-360"/>
</g>
<!-- c40&#45;&gt;c26 -->
<g id="edge30" class="edge">
<title>c40:e&#45;&gt;c26:w</title>
<path fill="none" stroke="black" stroke-width="3" d="M3924.31,-438.5C3973.89,-438.5 3916.62,-537.06 3950.35,-551.69"/>
<polygon fill="black" stroke="black" stroke-width="3" points="3949.85,-555.16 3960.31,-553.5 3951.1,-548.27 3949.85,-555.16"/>
</g>
<!-- x13&#45;&gt;c40 -->
<g id="edge3" class="edge">
<title>x13:e&#45;&gt;c40:w</title>
<path fill="none" stroke="black" stroke-width="3" d="M3281.17,-366.46C3288.98,-363.41 3293.53,-357.67 3305.31,-354.5 3444.85,-316.95 3509.34,-246.96 3629.31,-327.5 3660.15,-348.2 3631.95,-400.49 3653.35,-412.85"/>
<polygon fill="none" stroke="black" stroke-width="3" points="3281.14,-366.47 3275.9,-371.43 3269.31,-368.5 3274.55,-363.54 3281.14,-366.47"/>
<polygon fill="none" stroke="black" stroke-width="3" points="3653.6,-412.91 3660.32,-410.3 3665.31,-415.5 3658.59,-418.11 3653.6,-412.91"/>
</g>
<!-- x15&#45;&gt;c40 -->
<g id="edge4" class="edge">
<title>x15:e&#45;&gt;c40:w</title>
<path fill="none" stroke="black" stroke-width="3" d="M3454.02,-545.16C3505.73,-531.95 3423.12,-424.88 3478.31,-380.5 3530.61,-338.45 3563.07,-369.75 3629.31,-380.5 3641.02,-382.4 3645.72,-387.56 3653.35,-390.46"/>
<polygon fill="none" stroke="black" stroke-width="3" points="3453.74,-545.19 3448.21,-549.82 3441.81,-546.5 3447.34,-541.87 3453.74,-545.19"/>
<polygon fill="none" stroke="black" stroke-width="3" points="3653.48,-390.48 3660.07,-387.55 3665.31,-392.5 3658.72,-395.43 3653.48,-390.48"/>
</g>
<!-- x16&#45;&gt;c40 -->
<g id="edge5" class="edge">
<title>x16:e&#45;&gt;c40:w</title>
<path fill="none" stroke="black" stroke-width="3" d="M3451.56,-383.93C3462.15,-375.62 3460.4,-355.12 3478.31,-347.5 3540.07,-321.23 3564.71,-329.32 3629.31,-347.5 3642.43,-351.19 3645.59,-361.13 3653.53,-366.29"/>
<polygon fill="none" stroke="black" stroke-width="3" points="3451.29,-384.01 3446.72,-389.58 3439.81,-387.5 3444.39,-381.93 3451.29,-384.01"/>
<polygon fill="none" stroke="black" stroke-width="3" points="3653.73,-366.35 3660.57,-364.06 3665.31,-369.5 3658.47,-371.78 3653.73,-366.35"/>
</g>
<!-- x17 -->
<g id="node34" class="node">
<title>x17</title>
<path fill="none" stroke="black" d="M3490.31,-117.5C3490.31,-117.5 3617.31,-117.5 3617.31,-117.5 3623.31,-117.5 3629.31,-123.5 3629.31,-129.5 3629.31,-129.5 3629.31,-151.5 3629.31,-151.5 3629.31,-157.5 3623.31,-163.5 3617.31,-163.5 3617.31,-163.5 3490.31,-163.5 3490.31,-163.5 3484.31,-163.5 3478.31,-157.5 3478.31,-151.5 3478.31,-151.5 3478.31,-129.5 3478.31,-129.5 3478.31,-123.5 3484.31,-117.5 3490.31,-117.5"/>
<text text-anchor="middle" x="3553.81" y="-148.3" font-family="Times,serif" font-size="14.00">8x 7:7 &#45; 2055:2048</text>
<polyline fill="none" stroke="black" points="3478.31,-140.5 3629.31,-140.5 "/>
<text text-anchor="middle" x="3553.81" y="-125.3" font-family="Times,serif" font-size="14.00">2048x 7:7 &#45; 2047:0</text>
</g>
<!-- x17&#45;&gt;c40 -->
<g id="edge6" class="edge">
<title>x17:e&#45;&gt;c40:w</title>
<path fill="none" stroke="black" stroke-width="3" d="M3641.25,-141.93C3704.67,-159.17 3590.2,-327.31 3653.1,-345"/>
<polygon fill="none" stroke="black" stroke-width="3" points="3641.23,-141.92 3634.79,-145.18 3629.31,-140.5 3635.74,-137.24 3641.23,-141.92"/>
<polygon fill="none" stroke="black" stroke-width="3" points="3653.4,-345.03 3659.85,-341.8 3665.31,-346.5 3658.87,-349.74 3653.4,-345.03"/>
</g>
<!-- x18 -->
<g id="node35" class="node">
<title>x18</title>
<path fill="none" stroke="black" d="M3517.31,-23.5C3517.31,-23.5 3590.31,-23.5 3590.31,-23.5 3596.31,-23.5 3602.31,-29.5 3602.31,-35.5 3602.31,-35.5 3602.31,-47.5 3602.31,-47.5 3602.31,-53.5 3596.31,-59.5 3590.31,-59.5 3590.31,-59.5 3517.31,-59.5 3517.31,-59.5 3511.31,-59.5 3505.31,-53.5 3505.31,-47.5 3505.31,-47.5 3505.31,-35.5 3505.31,-35.5 3505.31,-29.5 3511.31,-23.5 3517.31,-23.5"/>
<text text-anchor="middle" x="3553.81" y="-37.8" font-family="Times,serif" font-size="14.00">7x 7:7 &#45; 6:0</text>
</g>
<!-- x19 -->
<g id="node36" class="node">
<title>x19</title>
<path fill="none" stroke="black" d="M3769.31,-47.5C3769.31,-47.5 3820.31,-47.5 3820.31,-47.5 3826.31,-47.5 3832.31,-53.5 3832.31,-59.5 3832.31,-59.5 3832.31,-71.5 3832.31,-71.5 3832.31,-77.5 3826.31,-83.5 3820.31,-83.5 3820.31,-83.5 3769.31,-83.5 3769.31,-83.5 3763.31,-83.5 3757.31,-77.5 3757.31,-71.5 3757.31,-71.5 3757.31,-59.5 3757.31,-59.5 3757.31,-53.5 3763.31,-47.5 3769.31,-47.5"/>
<text text-anchor="middle" x="3794.81" y="-61.8" font-family="Times,serif" font-size="14.00">6:0 &#45; 6:0</text>
</g>
<!-- x18&#45;&gt;x19 -->
<g id="edge7" class="edge">
<title>x18:e&#45;&gt;x19:w</title>
<path fill="none" stroke="black" stroke-width="3" d="M3616.04,-41.77C3670.44,-44.23 3689.21,-62.78 3743.63,-65.23"/>
<polygon fill="none" stroke="black" stroke-width="3" points="3615.81,-41.76 3609.72,-45.63 3603.81,-41.5 3609.9,-37.63 3615.81,-41.76"/>
<polygon fill="none" stroke="black" stroke-width="3" points="3743.81,-65.24 3749.9,-61.37 3755.81,-65.5 3749.73,-69.37 3743.81,-65.24"/>
</g>
<!-- x19&#45;&gt;n1 -->
<g id="edge9" class="edge">
<title>x19:e&#45;&gt;n1:w</title>
<path fill="none" stroke="black" stroke-width="3" d="M3833.81,-65.5C3842.05,-65.5 3838.62,-78.17 3832.81,-84 3823.83,-93.01 3388.33,-109.93 3375.61,-110.3 3375.51,-110.3 3375.4,-110.31 3375.31,-110.32"/>
<polygon fill="black" stroke="black" stroke-width="3" points="3381.39,-109 3370.81,-108.5 3378.77,-115.49 3381.39,-109"/>
</g>
<!-- x20 -->
<g id="node37" class="node">
<title>x20</title>
<path fill="none" stroke="black" d="M3517.31,-182.5C3517.31,-182.5 3590.31,-182.5 3590.31,-182.5 3596.31,-182.5 3602.31,-188.5 3602.31,-194.5 3602.31,-194.5 3602.31,-206.5 3602.31,-206.5 3602.31,-212.5 3596.31,-218.5 3590.31,-218.5 3590.31,-218.5 3517.31,-218.5 3517.31,-218.5 3511.31,-218.5 3505.31,-212.5 3505.31,-206.5 3505.31,-206.5 3505.31,-194.5 3505.31,-194.5 3505.31,-188.5 3511.31,-182.5 3517.31,-182.5"/>
<text text-anchor="middle" x="3553.81" y="-196.8" font-family="Times,serif" font-size="14.00">7x 7:7 &#45; 6:0</text>
</g>
<!-- x21 -->
<g id="node38" class="node">
<title>x21</title>
<path fill="none" stroke="black" d="M3769.31,-203.5C3769.31,-203.5 3820.31,-203.5 3820.31,-203.5 3826.31,-203.5 3832.31,-209.5 3832.31,-215.5 3832.31,-215.5 3832.31,-227.5 3832.31,-227.5 3832.31,-233.5 3826.31,-239.5 3820.31,-239.5 3820.31,-239.5 3769.31,-239.5 3769.31,-239.5 3763.31,-239.5 3757.31,-233.5 3757.31,-227.5 3757.31,-227.5 3757.31,-215.5 3757.31,-215.5 3757.31,-209.5 3763.31,-203.5 3769.31,-203.5"/>
<text text-anchor="middle" x="3794.81" y="-217.8" font-family="Times,serif" font-size="14.00">6:0 &#45; 6:0</text>
</g>
<!-- x20&#45;&gt;x21 -->
<g id="edge8" class="edge">
<title>x20:e&#45;&gt;x21:w</title>
<path fill="none" stroke="black" stroke-width="3" d="M3616.01,-200.74C3670.3,-202.89 3689.35,-219.12 3743.66,-221.27"/>
<polygon fill="none" stroke="black" stroke-width="3" points="3615.81,-200.73 3609.73,-204.62 3603.81,-200.5 3609.89,-196.62 3615.81,-200.73"/>
<polygon fill="none" stroke="black" stroke-width="3" points="3743.81,-221.27 3749.89,-217.39 3755.81,-221.5 3749.74,-225.38 3743.81,-221.27"/>
</g>
<!-- x21&#45;&gt;n4 -->
<g id="edge25" class="edge">
<title>x21:e&#45;&gt;n4:w</title>
<path fill="none" stroke="black" stroke-width="3" d="M3833.81,-221.5C3842.05,-221.5 3838.79,-234.34 3832.81,-240 3808.45,-263.08 3790.87,-240.16 3757.31,-240 3674.82,-239.6 3462.03,-277.15 3379.73,-239.23"/>
<polygon fill="black" stroke="black" stroke-width="3" points="3381.29,-236.09 3370.81,-234.5 3378.01,-242.28 3381.29,-236.09"/>
</g>
<!-- n1&#45;&gt;x17 -->
<g id="edge11" class="edge">
<title>n1:e&#45;&gt;x17:w</title>
<path fill="none" stroke="black" stroke-width="3" d="M3376.81,-108.5C3419.2,-108.5 3430.62,-125.5 3468.17,-128.15"/>
<polygon fill="black" stroke="black" stroke-width="3" points="3468.2,-131.66 3478.31,-128.5 3468.44,-124.66 3468.2,-131.66"/>
</g>
<!-- n1&#45;&gt;x18 -->
<g id="edge12" class="edge">
<title>n1:e&#45;&gt;x18:w</title>
<path fill="none" stroke="black" stroke-width="3" d="M3376.81,-108.5C3437.01,-108.5 3439.86,-48.87 3493.56,-42.12"/>
<polygon fill="black" stroke="black" stroke-width="3" points="3494.04,-45.6 3503.81,-41.5 3493.62,-38.61 3494.04,-45.6"/>
</g>
<!-- n4&#45;&gt;x17 -->
<g id="edge27" class="edge">
<title>n4:e&#45;&gt;x17:w</title>
<path fill="none" stroke="black" stroke-width="3" d="M3376.81,-234.5C3431.18,-234.5 3421.85,-162.43 3468.25,-153.42"/>
<polygon fill="black" stroke="black" stroke-width="3" points="3468.67,-156.9 3478.31,-152.5 3468.03,-149.93 3468.67,-156.9"/>
</g>
<!-- n4&#45;&gt;x20 -->
<g id="edge28" class="edge">
<title>n4:e&#45;&gt;x20:w</title>
<path fill="none" stroke="black" stroke-width="3" d="M3376.81,-234.5C3431.71,-234.5 3443.98,-204.49 3493.71,-200.86"/>
<polygon fill="black" stroke="black" stroke-width="3" points="3493.94,-204.35 3503.81,-200.5 3493.69,-197.36 3493.94,-204.35"/>
</g>
</g>
</svg>
